<?xml version="1.0" encoding="UTF-8" standalone="no"?>
<!-- Created with Inkscape (http://www.inkscape.org/) -->

<svg
   xmlns:dc="http://purl.org/dc/elements/1.1/"
   xmlns:cc="http://creativecommons.org/ns#"
   xmlns:rdf="http://www.w3.org/1999/02/22-rdf-syntax-ns#"
   xmlns:svg="http://www.w3.org/2000/svg"
   xmlns="http://www.w3.org/2000/svg"
   xmlns:sodipodi="http://sodipodi.sourceforge.net/DTD/sodipodi-0.dtd"
   xmlns:inkscape="http://www.inkscape.org/namespaces/inkscape"
   width="140"
   height="140"
   viewBox="0 0 37.041662 37.041662"
   version="1.1"
   id="svg8"
   inkscape:version="0.92.2 (5c3e80d, 2017-08-06)"
   sodipodi:docname="clock.svg">
  <defs
     id="defs2" />
  <sodipodi:namedview
     id="base"
     pagecolor="#ffffff"
     bordercolor="#666666"
     borderopacity="1.0"
     inkscape:pageopacity="0.0"
     inkscape:pageshadow="2"
     inkscape:zoom="1.4"
     inkscape:cx="-67.102454"
     inkscape:cy="64.088572"
     inkscape:document-units="mm"
     inkscape:current-layer="layer1"
     showgrid="false"
     fit-margin-top="0"
     fit-margin-left="0"
     fit-margin-right="0"
     fit-margin-bottom="0"
     units="px"
     inkscape:window-width="1366"
     inkscape:window-height="705"
     inkscape:window-x="-8"
     inkscape:window-y="-8"
     inkscape:window-maximized="1" />
  <metadata
     id="metadata5">
    <rdf:RDF>
      <cc:Work
         rdf:about="">
        <dc:format>image/svg+xml</dc:format>
        <dc:type
           rdf:resource="http://purl.org/dc/dcmitype/StillImage" />
        <dc:title></dc:title>
      </cc:Work>
    </rdf:RDF>
  </metadata>
  <g
     inkscape:label="Layer 1"
     inkscape:groupmode="layer"
     id="layer1"
     transform="translate(-29.784522,-125.09643)">
    <g
       id="g3763"
       transform="matrix(0.36237634,0,0,0.36140379,30.917108,126.28705)">
      <g
         id="g3705">
        <g
           id="g3703">
          <path
             id="path3699"
             d="M 48.58,0 C 21.793,0 0,21.793 0,48.58 0,75.367 21.793,97.16 48.58,97.16 75.367,97.16 97.16,75.367 97.16,48.58 97.16,21.793 75.367,0 48.58,0 Z m 0,86.823 c -21.087,0 -38.244,-17.155 -38.244,-38.243 0,-21.088 17.157,-38.243 38.244,-38.243 21.087,0 38.244,17.155 38.244,38.243 0,21.088 -17.157,38.243 -38.244,38.243 z"
             inkscape:connector-curvature="0"
             style="fill:#46b814" />
          <path
             id="path3701"
             d="M 73.898,47.08 H 52.066 V 20.83 c 0,-2.209 -1.791,-4 -4,-4 -2.209,0 -4,1.791 -4,4 v 30.25 c 0,2.209 1.791,4 4,4 h 25.832 c 2.209,0 4,-1.791 4,-4 0,-2.209 -1.791,-4 -4,-4 z"
             inkscape:connector-curvature="0"
             style="fill:#46b814" />
        </g>
      </g>
      <g
         id="g3707" />
      <g
         id="g3709" />
      <g
         id="g3711" />
      <g
         id="g3713" />
      <g
         id="g3715" />
      <g
         id="g3717" />
      <g
         id="g3719" />
      <g
         id="g3721" />
      <g
         id="g3723" />
      <g
         id="g3725" />
      <g
         id="g3727" />
      <g
         id="g3729" />
      <g
         id="g3731" />
      <g
         id="g3733" />
      <g
         id="g3735" />
    </g>
  </g>
</svg>
