<?xml version="1.0" encoding="UTF-8" standalone="no"?>
<!-- Created with Inkscape (http://www.inkscape.org/) -->

<svg
   xmlns:dc="http://purl.org/dc/elements/1.1/"
   xmlns:cc="http://creativecommons.org/ns#"
   xmlns:rdf="http://www.w3.org/1999/02/22-rdf-syntax-ns#"
   xmlns:svg="http://www.w3.org/2000/svg"
   xmlns="http://www.w3.org/2000/svg"
   xmlns:sodipodi="http://sodipodi.sourceforge.net/DTD/sodipodi-0.dtd"
   xmlns:inkscape="http://www.inkscape.org/namespaces/inkscape"
   width="140"
   height="140"
   viewBox="0 0 37.041662 37.041662"
   version="1.1"
   id="svg8"
   inkscape:version="0.92.2 (5c3e80d, 2017-08-06)"
   sodipodi:docname="pay.svg">
  <defs
     id="defs2" />
  <sodipodi:namedview
     id="base"
     pagecolor="#ffffff"
     bordercolor="#666666"
     borderopacity="1.0"
     inkscape:pageopacity="0.0"
     inkscape:pageshadow="2"
     inkscape:zoom="1.4"
     inkscape:cx="-67.102454"
     inkscape:cy="64.088572"
     inkscape:document-units="mm"
     inkscape:current-layer="layer1"
     showgrid="false"
     fit-margin-top="0"
     fit-margin-left="0"
     fit-margin-right="0"
     fit-margin-bottom="0"
     units="px"
     inkscape:window-width="1366"
     inkscape:window-height="705"
     inkscape:window-x="-8"
     inkscape:window-y="-8"
     inkscape:window-maximized="1" />
  <metadata
     id="metadata5">
    <rdf:RDF>
      <cc:Work
         rdf:about="">
        <dc:format>image/svg+xml</dc:format>
        <dc:type
           rdf:resource="http://purl.org/dc/dcmitype/StillImage" />
        <dc:title></dc:title>
      </cc:Work>
    </rdf:RDF>
  </metadata>
  <g
     inkscape:label="Layer 1"
     inkscape:groupmode="layer"
     id="layer1"
     transform="translate(-29.784522,-125.09643)">
    <g
       id="g3949"
       transform="matrix(0.07280765,0,0,0.07078163,30.544234,126.76131)">
      <g
         id="g3838">
        <g
           id="g3836">
          <path
             id="path3834"
             d="m 405.52,344.525 -27.12,-27.6 c -2.772,-2.826 -7.193,-3.2 -10.4,-0.88 l -118.16,87.04 -41.84,-19.68 36.72,-4.08 c 4.04,-0.488 7.069,-3.931 7.04,-8 v -34.56 c 0,-4.418 -3.582,-8 -8,-8 h -40 l -67.36,-6.88 c -1.366,-0.133 -2.744,0.087 -4,0.64 l -45.92,19.68 H 0 v 16 h 88.16 c 1.099,0.009 2.189,-0.209 3.2,-0.64 l 45.52,-19.92 65.68,6.72 h 33.52 v 19.84 l -29.6,3.68 -42.96,-4.56 c -3.87,-0.373 -7.448,2.091 -8.48,5.84 -1.042,3.735 0.745,7.68 4.24,9.36 l 88.72,40.8 c 2.617,1.19 5.671,0.885 8,-0.8 l 116.32,-85.44 16,16.64 -133.68,116.8 H 218.4 L 90.8,419.085 c -0.892,-0.353 -1.841,-0.543 -2.8,-0.56 H 0 v 16 h 86.64 l 127.52,47.52 c 0.897,0.326 1.845,0.488 2.8,0.48 h 40.64 c 1.945,-0.003 3.822,-0.714 5.28,-2 l 142.24,-124.32 c 0.135,-0.118 0.266,-0.24 0.392,-0.366 3.127,-3.122 3.13,-8.188 0.008,-11.314 z"
             inkscape:connector-curvature="0"
             style="fill:#46b814" />
        </g>
      </g>
      <g
         id="g3844">
        <g
           id="g3842">
          <path
             id="path3840"
             d="m 426.8,202.525 -42.24,-43.92 c -1.345,-1.426 -3.167,-2.309 -5.12,-2.48 l -86.4,-8 h -32.96 l 1.6,-24 31.28,-6.32 43.68,9.76 c 0.9,0.155 1.82,0.155 2.72,0 l 42.48,-5.04 -1.92,-16 -41.12,4.4 -44,-9.76 c -1.076,-0.278 -2.204,-0.278 -3.28,0 l -38.96,8 c -3.587,0.687 -6.253,3.715 -6.48,7.36 l -2.56,38.96 c -0.01,0.165 -0.015,0.329 -0.014,0.494 0.008,4.418 3.596,7.994 8.014,7.986 h 40.8 l 82.72,7.52 42.56,44.56 c 1.503,1.576 3.583,2.472 5.76,2.48 H 480 v -16 z"
             inkscape:connector-curvature="0"
             style="fill:#46b814" />
        </g>
      </g>
      <g
         id="g3850">
        <g
           id="g3848">
          <path
             id="path3846"
             d="m 412.88,35.965 c -0.884,-0.716 -1.926,-1.21 -3.04,-1.44 l -136,-32 c -2.304,-0.483 -4.703,0.073 -6.56,1.52 l -88,64 9.44,12.96 85.04,-61.84 130.72,30.72 70.64,54.96 9.76,-12.88 z"
             inkscape:connector-curvature="0"
             style="fill:#46b814" />
        </g>
      </g>
      <g
         id="g3856">
        <g
           id="g3854">
          <path
             id="path3852"
             d="m 282.96,51.405 c -2.086,-0.938 -4.474,-0.938 -6.56,0 l -48,24 7.2,14.24 44.8,-22.32 36.64,14.96 5.92,-14.88 z"
             inkscape:connector-curvature="0"
             style="fill:#46b814" />
        </g>
      </g>
      <g
         id="g3862">
        <g
           id="g3860">
          <path
             id="path3858"
             d="m 200.24,140.045 -14.08,-2.08 c -6.4,-0.96 -10.16,-3.44 -10.16,-7.44 0,-4 5.6,-8 13.12,-7.6 h 5.76 c 7.52,0 13.12,4 13.12,7.6 v 2.16 h 16 v -2.16 c 0,-13.6 -12.8,-24 -29.12,-24 h -5.76 c -16.32,0 -29.12,10.4 -29.12,24 1.313,12.477 11.474,22.165 24,22.88 l 13.84,2.08 c 6.4,0.96 10.16,3.84 10.16,7.44 0,3.6 -5.6,7.6 -13.12,7.6 h -5.76 c -7.52,0 -13.12,-4 -13.12,-7.6 v -2.16 h -16 v 2.16 c 0,13.2 13.12,23.6 29.12,23.6 h 5.76 c 16.32,0 29.12,-10.4 29.36,-23.2 -1.128,-12.634 -11.337,-22.537 -24,-23.28 z"
             inkscape:connector-curvature="0"
             style="fill:#46b814" />
        </g>
      </g>
      <g
         id="g3868">
        <g
           id="g3866">
          <path
             id="path3864"
             d="m 255.44,154.925 c -2.909,21.76 -16.768,40.51 -36.716,49.675 -32.118,14.757 -70.118,0.682 -84.875,-31.436 -14.757,-32.118 -0.682,-70.118 31.436,-84.875 32.118,-14.757 70.118,-0.682 84.875,31.436 l 14.48,-6.72 c -13.075,-28.334 -41.432,-46.48 -72.638,-46.48 -44.183,-0.001 -80.001,35.816 -80.001,79.999 -0.001,44.183 35.816,80 79.999,80.001 40.154,0.07 74.14,-29.637 79.44,-69.44 z"
             inkscape:connector-curvature="0"
             style="fill:#46b814" />
        </g>
      </g>
      <g
         id="g3874">
        <g
           id="g3872">
          <rect
             id="rect3870"
             height="16"
             width="16"
             y="98.529999"
             x="184"
             style="fill:#46b814" />
        </g>
      </g>
      <g
         id="g3876" />
      <g
         id="g3878" />
      <g
         id="g3880" />
      <g
         id="g3882" />
      <g
         id="g3884" />
      <g
         id="g3886" />
      <g
         id="g3888" />
      <g
         id="g3890" />
      <g
         id="g3892" />
      <g
         id="g3894" />
      <g
         id="g3896" />
      <g
         id="g3898" />
      <g
         id="g3900" />
      <g
         id="g3902" />
      <g
         id="g3904" />
    </g>
  </g>
</svg>
