<?xml version="1.0" encoding="UTF-8" standalone="no"?>
<!-- Created with Inkscape (http://www.inkscape.org/) -->

<svg
   xmlns:dc="http://purl.org/dc/elements/1.1/"
   xmlns:cc="http://creativecommons.org/ns#"
   xmlns:rdf="http://www.w3.org/1999/02/22-rdf-syntax-ns#"
   xmlns:svg="http://www.w3.org/2000/svg"
   xmlns="http://www.w3.org/2000/svg"
   xmlns:sodipodi="http://sodipodi.sourceforge.net/DTD/sodipodi-0.dtd"
   xmlns:inkscape="http://www.inkscape.org/namespaces/inkscape"
   width="140"
   height="140"
   viewBox="0 0 37.041662 37.041662"
   version="1.1"
   id="svg8"
   inkscape:version="0.92.2 (5c3e80d, 2017-08-06)"
   sodipodi:docname="piggy.svg">
  <defs
     id="defs2" />
  <sodipodi:namedview
     id="base"
     pagecolor="#ffffff"
     bordercolor="#666666"
     borderopacity="1.0"
     inkscape:pageopacity="0.0"
     inkscape:pageshadow="2"
     inkscape:zoom="1.4"
     inkscape:cx="-67.102454"
     inkscape:cy="64.088572"
     inkscape:document-units="mm"
     inkscape:current-layer="layer1"
     showgrid="false"
     fit-margin-top="0"
     fit-margin-left="0"
     fit-margin-right="0"
     fit-margin-bottom="0"
     units="px"
     inkscape:window-width="1366"
     inkscape:window-height="705"
     inkscape:window-x="-8"
     inkscape:window-y="-8"
     inkscape:window-maximized="1" />
  <metadata
     id="metadata5">
    <rdf:RDF>
      <cc:Work
         rdf:about="">
        <dc:format>image/svg+xml</dc:format>
        <dc:type
           rdf:resource="http://purl.org/dc/dcmitype/StillImage" />
        <dc:title></dc:title>
      </cc:Work>
    </rdf:RDF>
  </metadata>
  <g
     inkscape:label="Layer 1"
     inkscape:groupmode="layer"
     id="layer1"
     transform="translate(-29.784522,-125.09643)">
    <g
       id="g4030"
       transform="matrix(0.07042759,0,0,0.06910529,30.275891,125.79406)">
      <g
         id="g3955">
        <g
           id="g3953">
          <path
             id="path3951"
             d="m 422.503,270.613 c -4.115,0 -7.451,3.336 -7.451,7.451 0,5.217 -4.244,9.461 -9.461,9.461 -5.216,0 -9.461,-4.244 -9.461,-9.461 0,-4.116 -3.336,-7.451 -7.451,-7.451 -4.115,0 -7.451,3.336 -7.451,7.451 0,13.434 10.93,24.363 24.363,24.363 13.433,0 24.363,-10.93 24.363,-24.363 0,-4.117 -3.336,-7.451 -7.451,-7.451 z"
             inkscape:connector-curvature="0"
             style="fill:#46b814" />
        </g>
      </g>
      <g
         id="g3961">
        <g
           id="g3959">
          <path
             id="path3957"
             d="m 492.444,271.83 -20.972,-6.718 c -2.686,-0.861 -4.803,-3.005 -5.662,-5.736 -4.42,-14.053 -11.09,-27.246 -19.825,-39.214 -3.981,-5.455 -8.408,-10.664 -13.244,-15.623 3.094,-13.573 4.776,-28.934 4.558,-42.205 -0.312,-18.985 -4.106,-30.12 -11.598,-34.044 -4.035,-2.116 -16.315,-8.544 -82.782,21.882 -1.574,0.72 -3.044,1.607 -4.405,2.623 -4.481,-1.204 -9.061,-2.318 -13.669,-3.318 -0.555,-0.121 -1.127,-0.228 -1.686,-0.346 5.386,-11.766 8.531,-24.545 9.122,-37.737 0.184,-4.112 -2.999,-7.594 -7.111,-7.777 -4.101,-0.204 -7.594,2.998 -7.777,7.11 -0.971,21.691 -9.969,42.1 -25.335,57.467 -9.181,9.181 -19.931,15.85 -31.388,20.05 -19.869,-2.788 -40.107,-2.788 -59.976,0 -11.458,-4.2 -22.207,-10.869 -31.388,-20.05 -16.394,-16.394 -25.423,-38.191 -25.423,-61.376 0,-23.186 9.029,-44.982 25.423,-61.376 16.394,-16.395 38.192,-25.424 61.376,-25.424 23.184,0 44.982,9.029 61.376,25.424 6.588,6.588 12.032,14.106 16.181,22.343 1.851,3.676 6.332,5.156 10.007,3.304 3.676,-1.85 5.155,-6.331 3.304,-10.006 C 316.687,51.424 310.31,42.617 302.597,34.903 283.388,15.694 257.848,5.115 230.683,5.115 c -27.165,0 -52.705,10.579 -71.914,29.788 -19.209,19.21 -29.788,44.749 -29.788,71.914 0,27.165 10.579,52.705 29.788,71.914 5.541,5.541 11.569,10.306 17.945,14.298 0.002,0 0.004,-0.001 0.006,-0.001 -4.633,1.204 -9.231,2.556 -13.778,4.076 -3.903,1.305 -6.009,5.526 -4.704,9.43 1.304,3.903 5.527,6.009 9.429,4.705 40.636,-13.585 85.396,-13.585 126.032,0 0.784,0.262 1.58,0.386 2.363,0.386 3.117,0 6.023,-1.972 7.066,-5.091 1.305,-3.903 -0.801,-8.125 -4.704,-9.43 -4.547,-1.52 -9.145,-2.873 -13.778,-4.076 0.002,0 0.004,0.001 0.006,0.001 6.377,-3.992 12.404,-8.757 17.945,-14.298 4.902,-4.902 9.229,-10.255 12.986,-15.944 2.054,0.399 4.093,0.817 6.102,1.253 2.676,0.581 5.34,1.205 7.98,1.86 -0.083,0.324 -0.168,0.647 -0.237,0.976 -3.634,17.245 -3.398,32.497 0.701,45.33 3.684,11.535 10.333,20.88 19.76,27.777 11.111,8.128 24.525,11.639 36.676,11.639 9.145,0 17.576,-1.99 23.768,-5.497 7.004,-3.967 12.872,-12.326 17.517,-24.876 2.147,2.506 4.182,5.073 6.1,7.701 7.777,10.654 13.714,22.396 17.646,34.898 2.309,7.343 8.041,13.121 15.332,15.458 l 20.972,6.718 c 5.503,1.763 9.2,6.828 9.2,12.606 v 34.775 c 0,5.778 -3.697,10.843 -9.2,12.606 l -33.789,10.823 c -5.406,1.733 -9.981,5.448 -12.882,10.462 -13.275,22.942 -34.146,41.927 -62.037,56.428 -3.222,1.677 -5.454,4.676 -6.126,8.23 l -10.822,57.303 c -0.299,1.579 -1.682,2.724 -3.289,2.724 h -35.187 c -1.607,0 -2.99,-1.146 -3.289,-2.724 l -5.994,-31.669 c -1.18,-6.231 -7.024,-10.37 -13.314,-9.417 -15.157,2.292 -30.775,3.453 -46.418,3.453 -11.638,0 -23.127,-0.649 -34.15,-1.93 -6.095,-0.701 -11.773,3.454 -12.912,9.472 l -5.696,30.091 c -0.299,1.579 -1.682,2.724 -3.289,2.724 h -35.187 c -1.607,0 -2.99,-1.146 -3.293,-2.748 l -10.42,-54.122 c -0.671,-3.487 -2.861,-6.452 -6.012,-8.135 C 96.25,401.595 71.12,359.191 71.12,304.351 c 0,-27.708 6.062,-52.209 18.017,-72.825 11.156,-19.239 27.45,-35.146 48.429,-47.281 3.562,-2.061 4.779,-6.619 2.719,-10.182 -2.06,-3.562 -6.618,-4.777 -10.181,-2.719 C 89.425,194.876 64.89,231.18 58.135,277.29 v -0.001 c -0.717,-0.065 -1.435,-0.127 -2.15,-0.201 0.13,-4.975 -0.77,-9.995 -2.73,-14.867 -4.323,-10.746 -13.203,-18.502 -22.624,-19.759 -7.424,-0.994 -14.489,2.158 -19.392,8.636 -7.109,9.394 -5.95,16.828 -3.727,21.41 3.753,7.733 13.4,13.203 29.409,16.642 -0.44,0.659 -0.924,1.321 -1.454,1.986 C 26.008,302.999 14.864,305.622 7.628,305.869 3.392,306.012 0,309.413 0,313.652 v 0.036 c 0,4.181 3.299,7.591 7.476,7.782 0.535,0.025 1.094,0.038 1.676,0.038 9.156,0 23.851,-3.377 37.969,-21.08 2.229,-2.794 4.045,-5.742 5.441,-8.788 1.406,0.159 2.757,0.295 4.051,0.415 0,-0.003 0,-0.005 10e-4,-0.008 -0.254,4.038 -0.395,8.135 -0.395,12.304 0,31.028 7.397,58.693 21.984,82.23 13.45,21.7 32.707,39.468 57.255,52.83 l 10.13,52.616 c 1.629,8.608 9.17,14.856 17.931,14.856 h 35.187 c 8.761,0 16.302,-6.248 17.931,-14.856 l 5.15,-27.208 c 10.696,1.133 21.77,1.707 32.965,1.707 15.36,0 30.702,-1.07 45.654,-3.182 l 5.429,28.685 c 1.63,8.608 9.171,14.855 17.931,14.855 h 35.187 c 8.761,0 16.302,-6.248 17.932,-14.859 l 10.537,-55.791 c 29.768,-15.741 52.206,-36.419 66.704,-61.475 1.045,-1.806 2.654,-3.131 4.53,-3.732 l 33.788,-10.823 C 504.141,356.455 512,345.686 512,333.403 v -34.775 c 0,-12.282 -7.859,-23.051 -19.556,-26.798 z m -71.166,-88.557 c -2.868,24.526 -10.561,45.506 -18.291,49.884 -8.786,4.977 -29.071,5.938 -44.301,-5.203 -15.248,-11.154 -20.323,-31.212 -14.678,-58.006 0,-0.001 0,-0.001 0,-0.001 0.567,-2.691 2.479,-5.019 5.114,-6.225 37.304,-17.076 58.811,-22.661 66.801,-22.661 1.206,0 2.104,0.127 2.702,0.361 2.4,2.558 5.548,17.099 2.653,41.851 z M 20.921,266.001 c -0.771,-1.59 1.049,-4.385 2.203,-5.911 1.829,-2.416 3.514,-2.91 4.787,-2.91 0.269,0 0.52,0.022 0.75,0.053 3.426,0.457 8.226,4.227 10.769,10.548 0.599,1.488 1.377,3.953 1.559,7.027 -10.315,-2.137 -18.329,-5.218 -20.068,-8.807 z"
             inkscape:connector-curvature="0"
             style="fill:#46b814" />
        </g>
      </g>
      <g
         id="g3967">
        <g
           id="g3965">
          <path
             id="path3963"
             d="M 237.918,98.277 V 71.613 c 9.195,0.657 12.611,4.86 15.763,4.86 3.941,0 5.78,-4.991 5.78,-7.487 0,-6.437 -12.611,-9.195 -21.543,-9.458 V 55.98 c 0,-1.576 -1.971,-3.021 -3.941,-3.021 -2.234,0 -3.81,1.445 -3.81,3.021 v 3.809 c -12.479,1.314 -24.958,7.882 -24.958,24.433 0,16.814 13.136,21.543 24.958,25.746 v 30.869 c -13.399,-1.051 -16.945,-10.246 -21.28,-10.246 -3.284,0 -6.042,4.335 -6.042,7.488 0,6.436 11.034,15.237 27.322,15.5 v 0 4.072 c 0,1.576 1.577,3.021 3.81,3.021 1.971,0 3.941,-1.445 3.941,-3.021 v -4.466 c 14.187,-1.971 23.907,-10.903 23.907,-27.06 0,-17.864 -12.479,-23.645 -23.907,-27.848 z m -6.963,-2.495 c -6.962,-2.627 -12.61,-5.385 -12.61,-12.872 0,-6.831 5.254,-10.115 12.61,-11.034 z m 6.174,44.792 v -27.716 c 6.436,2.758 11.559,6.436 11.559,14.711 0,7.489 -4.466,11.692 -11.559,13.005 z"
             inkscape:connector-curvature="0"
             style="fill:#46b814" />
        </g>
      </g>
      <g
         id="g3969" />
      <g
         id="g3971" />
      <g
         id="g3973" />
      <g
         id="g3975" />
      <g
         id="g3977" />
      <g
         id="g3979" />
      <g
         id="g3981" />
      <g
         id="g3983" />
      <g
         id="g3985" />
      <g
         id="g3987" />
      <g
         id="g3989" />
      <g
         id="g3991" />
      <g
         id="g3993" />
      <g
         id="g3995" />
      <g
         id="g3997" />
    </g>
  </g>
</svg>
